<mxfile host="app.diagrams.net" modified="2021-12-05T23:59:08.749Z" agent="5.0 (Macintosh; Intel Mac OS X 10_15_7) AppleWebKit/537.36 (KHTML, like Gecko) Chrome/96.0.4664.55 Safari/537.36" etag="NZwyOf5J3FPXcvVYW-Bu" version="15.9.1" type="github">
  <diagram id="bSS58h0viLy0H9M7KixR" name="Page-1">
    <mxGraphModel dx="591" dy="588" grid="1" gridSize="10" guides="1" tooltips="1" connect="1" arrows="1" fold="1" page="1" pageScale="1" pageWidth="850" pageHeight="1100" math="0" shadow="0">
      <root>
        <mxCell id="0" />
        <mxCell id="1" parent="0" />
        <mxCell id="vH2KANkhNQMuchZAuumM-1" value="" style="rounded=1;whiteSpace=wrap;html=1;" vertex="1" parent="1">
          <mxGeometry x="150" y="155" width="240" height="35" as="geometry" />
        </mxCell>
        <mxCell id="vH2KANkhNQMuchZAuumM-2" value="input" style="text;html=1;strokeColor=none;fillColor=none;align=center;verticalAlign=middle;whiteSpace=wrap;rounded=0;" vertex="1" parent="1">
          <mxGeometry x="160" y="160" width="60" height="30" as="geometry" />
        </mxCell>
        <mxCell id="vH2KANkhNQMuchZAuumM-9" value="" style="rounded=0;whiteSpace=wrap;html=1;" vertex="1" parent="1">
          <mxGeometry x="150" y="210" width="370" height="160" as="geometry" />
        </mxCell>
        <mxCell id="vH2KANkhNQMuchZAuumM-10" value="item01" style="text;html=1;strokeColor=#666666;fillColor=#f5f5f5;align=center;verticalAlign=middle;whiteSpace=wrap;rounded=0;fontColor=#333333;" vertex="1" parent="1">
          <mxGeometry x="180" y="240" width="240" height="30" as="geometry" />
        </mxCell>
        <mxCell id="vH2KANkhNQMuchZAuumM-12" value="Add" style="rounded=1;html=1;shadow=0;dashed=0;whiteSpace=wrap;fontSize=10;fillColor=#0050ef;align=center;strokeColor=#001DBC;fontColor=#ffffff;" vertex="1" parent="1">
          <mxGeometry x="404.5" y="155" width="105.5" height="35" as="geometry" />
        </mxCell>
        <mxCell id="vH2KANkhNQMuchZAuumM-14" value="Delete" style="rounded=1;html=1;shadow=0;dashed=0;whiteSpace=wrap;fontSize=10;fillColor=#e51400;align=center;strokeColor=#B20000;fontColor=#ffffff;" vertex="1" parent="1">
          <mxGeometry x="430" y="237.5" width="70" height="32.5" as="geometry" />
        </mxCell>
        <mxCell id="vH2KANkhNQMuchZAuumM-15" value="item02" style="text;html=1;strokeColor=#666666;fillColor=#f5f5f5;align=center;verticalAlign=middle;whiteSpace=wrap;rounded=0;fontColor=#333333;" vertex="1" parent="1">
          <mxGeometry x="180" y="282.5" width="240" height="30" as="geometry" />
        </mxCell>
        <mxCell id="vH2KANkhNQMuchZAuumM-16" value="Delete" style="rounded=1;html=1;shadow=0;dashed=0;whiteSpace=wrap;fontSize=10;fillColor=#e51400;align=center;strokeColor=#B20000;fontColor=#ffffff;" vertex="1" parent="1">
          <mxGeometry x="430" y="280" width="70" height="32.5" as="geometry" />
        </mxCell>
        <mxCell id="vH2KANkhNQMuchZAuumM-17" value="item03" style="text;html=1;strokeColor=#666666;fillColor=#f5f5f5;align=center;verticalAlign=middle;whiteSpace=wrap;rounded=0;fontColor=#333333;" vertex="1" parent="1">
          <mxGeometry x="180" y="322.5" width="240" height="30" as="geometry" />
        </mxCell>
        <mxCell id="vH2KANkhNQMuchZAuumM-18" value="Delete" style="rounded=1;html=1;shadow=0;dashed=0;whiteSpace=wrap;fontSize=10;fillColor=#e51400;align=center;strokeColor=#B20000;fontColor=#ffffff;" vertex="1" parent="1">
          <mxGeometry x="430" y="320" width="70" height="32.5" as="geometry" />
        </mxCell>
      </root>
    </mxGraphModel>
  </diagram>
</mxfile>
